<svg width="16" height="10" viewBox="0 0 16 10" fill="none" xmlns="http://www.w3.org/2000/svg">
<path d="M15.5827 2.39587L8.58268 9.41671C8.49935 9.50004 8.40907 9.55893 8.31185 9.59337C8.21463 9.62837 8.11046 9.64587 7.99935 9.64587C7.88824 9.64587 7.78407 9.62837 7.68685 9.59337C7.58963 9.55893 7.49935 9.50004 7.41602 9.41671L0.395182 2.39587C0.200738 2.20143 0.103516 1.95837 0.103516 1.66671C0.103516 1.37504 0.207682 1.12504 0.416016 0.916708C0.624349 0.708375 0.867404 0.604208 1.14518 0.604208C1.42296 0.604208 1.66602 0.708375 1.87435 0.916708L7.99935 7.04171L14.1243 0.916708C14.3188 0.722263 14.5582 0.625041 14.8427 0.625041C15.1277 0.625041 15.3743 0.729208 15.5827 0.937541C15.791 1.14587 15.8952 1.38893 15.8952 1.66671C15.8952 1.94449 15.791 2.18754 15.5827 2.39587Z" fill="#3D3D3D"/>
</svg>
