<svg width="100" height="100" viewBox="0 0 100 100" fill="none" xmlns="http://www.w3.org/2000/svg">
<path d="M67.4563 46.7375L65 45.9125V36.5C65 35.7044 64.6839 34.9413 64.1213 34.3787C63.5587 33.8161 62.7957 33.5 62 33.5H51.5V30.5C51.5 30.1022 51.342 29.7206 51.0607 29.4393C50.7794 29.158 50.3978 29 50 29C49.6022 29 49.2207 29.158 48.9393 29.4393C48.658 29.7206 48.5 30.1022 48.5 30.5V33.5H38C37.2044 33.5 36.4413 33.8161 35.8787 34.3787C35.3161 34.9413 35 35.7044 35 36.5V45.9125L32.5438 46.7375C31.9472 46.9381 31.4288 47.3213 31.0621 47.8328C30.6953 48.3442 30.4986 48.9581 30.5 49.5875V56C30.5002 56.1394 30.5191 56.2781 30.5563 56.4125C33.5 66.725 46.7 70.2875 49.325 70.8875C49.7695 70.9875 50.2306 70.9875 50.675 70.8875C53.3 70.2875 66.5 66.725 69.4438 56.4125C69.4809 56.2781 69.4998 56.1394 69.5 56V49.5875C69.5014 48.9581 69.3047 48.3442 68.938 47.8328C68.5712 47.3213 68.0528 46.9381 67.4563 46.7375ZM38 36.5H62V44.9188L50.9563 41.2438C50.6785 41.1484 50.3874 41.0978 50.0938 41.0938H49.9063C49.6126 41.0978 49.3215 41.1484 49.0438 41.2438L38 44.9188V36.5ZM66.5 55.775C65.4125 59.3375 62.6563 62.375 58.2688 64.7937C55.6595 66.1995 52.8805 67.2644 50 67.9625C47.1195 67.2644 44.3406 66.1995 41.7313 64.7937C37.3438 62.375 34.5875 59.3375 33.5 55.775V49.5875L36.95 48.425L48.5 44.5812V57.5C48.5 57.8978 48.658 58.2794 48.9393 58.5607C49.2207 58.842 49.6022 59 50 59C50.3978 59 50.7794 58.842 51.0607 58.5607C51.342 58.2794 51.5 57.8978 51.5 57.5V44.5812L63.05 48.425L66.5 49.5875V55.775Z" fill="#385981"/>
<rect x="1" y="1" width="98" height="98" rx="49" stroke="#A6B5CA" stroke-width="2"/>
</svg>
